<svg width="25" height="25" viewBox="0 0 25 25" fill="none" xmlns="http://www.w3.org/2000/svg">
<g clip-path="url(#clip0_51_32)">
<path d="M12.5 4.6875C7.29163 4.6875 2.84371 7.92708 1.04163 12.5C2.84371 17.0729 7.29163 20.3125 12.5 20.3125C17.7135 20.3125 22.1562 17.0729 23.9583 12.5C22.1562 7.92708 17.7135 4.6875 12.5 4.6875ZM12.5 17.7083C9.62496 17.7083 7.29163 15.375 7.29163 12.5C7.29163 9.625 9.62496 7.29167 12.5 7.29167C15.375 7.29167 17.7083 9.625 17.7083 12.5C17.7083 15.375 15.375 17.7083 12.5 17.7083ZM12.5 9.375C10.776 9.375 9.37496 10.776 9.37496 12.5C9.37496 14.224 10.776 15.625 12.5 15.625C14.2239 15.625 15.625 14.224 15.625 12.5C15.625 10.776 14.2239 9.375 12.5 9.375Z" fill="currentColor"/>
</g>
<defs>
<clipPath id="clip0_51_32">
<rect width="25" height="25" fill="white"/>
</clipPath>
</defs>
</svg>
