<svg width="29" height="29" viewBox="0 0 29 29" fill="none" xmlns="http://www.w3.org/2000/svg">
<path d="M5 8C6.38071 8 7.5 6.88071 7.5 5.5C7.5 4.11929 6.38071 3 5 3C3.61929 3 2.5 4.11929 2.5 5.5C2.5 6.88071 3.61929 8 5 8Z" fill="currentColor"/>
<path d="M12.5 6H26.5" stroke="currentColor" stroke-width="2" stroke-miterlimit="10" stroke-linecap="round" stroke-linejoin="round"/>
<path d="M5 17C6.38071 17 7.5 15.8807 7.5 14.5C7.5 13.1193 6.38071 12 5 12C3.61929 12 2.5 13.1193 2.5 14.5C2.5 15.8807 3.61929 17 5 17Z" fill="currentColor"/>
<path d="M12.5 15H26.5" stroke="currentColor" stroke-width="2" stroke-miterlimit="10" stroke-linecap="round" stroke-linejoin="round"/>
<path d="M5 26C6.38071 26 7.5 24.8807 7.5 23.5C7.5 22.1193 6.38071 21 5 21C3.61929 21 2.5 22.1193 2.5 23.5C2.5 24.8807 3.61929 26 5 26Z" fill="currentColor"/>
<path d="M12.5 24H26.5" stroke="currentColor" stroke-width="2" stroke-miterlimit="10" stroke-linecap="round" stroke-linejoin="round"/>
</svg>
