<svg width="25" height="25" viewBox="0 0 25 25" fill="none" xmlns="http://www.w3.org/2000/svg">
<path d="M17.9132 15.8146L19.0181 16.9194L23.4375 12.5L19.0181 8.08057L17.9132 9.18545L20.4465 11.7187H9.375V13.2812H20.4465L17.9132 15.8146Z" fill="currentColor"/>
<path d="M19.1158 19.1292C17.3452 20.8999 14.9911 21.875 12.4871 21.875C9.98286 21.875 7.62842 20.8999 5.85762 19.1292C4.08677 17.3584 3.125 15.0042 3.125 12.5C3.125 9.99605 4.08677 7.64185 5.85767 5.87104C7.62852 4.10024 9.98291 3.125 12.4871 3.125C14.991 3.125 17.3451 4.10024 19.1158 5.871C19.2385 5.99406 19.3579 6.12044 19.4738 6.25H21.4626C19.4864 3.4166 16.2034 1.5625 12.4871 1.5625C6.44634 1.5625 1.5625 6.45986 1.5625 12.5C1.5625 18.5408 6.44634 23.4375 12.4871 23.4375C16.2035 23.4375 19.4866 21.5835 21.4628 18.75H19.474C19.3581 18.8797 19.2386 19.0061 19.1158 19.1292Z" fill="currentColor"/>
</svg>
