<svg width="25" height="25" viewBox="0 0 25 25" fill="none" xmlns="http://www.w3.org/2000/svg">
<g clip-path="url(#clip0_51_37)">
<path d="M21.3043 8.26087L20.4619 23.9674C20.4348 24.538 19.9456 25 19.375 25H5.62497C5.05432 25 4.56519 24.538 4.53801 23.9674L3.69562 8.26087C3.66845 7.66304 4.1304 7.14674 4.72823 7.11956C5.32605 7.09239 5.84236 7.55434 5.86953 8.15217L6.65758 22.8261H18.3695L19.1576 8.15217C19.1848 7.55434 19.7011 7.09239 20.2989 7.11956C20.8695 7.14674 21.3315 7.66304 21.3043 8.26087ZM24.1848 4.61956C24.1848 5.21739 23.6956 5.70652 23.0978 5.70652H1.90214C1.30432 5.70652 0.815186 5.21739 0.815186 4.61956C0.815186 4.02174 1.30432 3.53261 1.90214 3.53261H7.8804V1.08695C7.8804 0.570649 8.23366 0.271736 8.74997 0.271736H16.25C16.7663 0.271736 17.1195 0.570649 17.1195 1.08695V3.53261H23.0978C23.6956 3.53261 24.1848 4.02174 24.1848 4.61956ZM9.78258 3.53261H15.2174V2.17391H9.78258V3.53261ZM10.2445 21.1956C10.788 21.1956 11.1956 20.6793 11.1956 20.163L10.9239 8.42391C10.9239 7.90761 10.4891 7.47282 9.94562 7.47282C9.42932 7.47282 8.99453 7.90761 9.02171 8.45108L9.29345 20.2174C9.29345 20.7337 9.72823 21.1956 10.2445 21.1956ZM14.7282 21.1956C15.2445 21.1956 15.6793 20.7609 15.6793 20.2446L15.9511 8.50543C15.9511 7.98913 15.5434 7.52717 15.0271 7.52717C14.4837 7.52717 14.0761 7.93478 14.0489 8.45108L13.7771 20.1902C13.75 20.7337 14.1848 21.1956 14.7282 21.1956C14.7011 21.1956 14.7011 21.1956 14.7282 21.1956Z" fill="currentColor"/>
</g>
<defs>
<clipPath id="clip0_51_37">
<rect width="25" height="25" fill="white"/>
</clipPath>
</defs>
</svg>
